Patient4_TMGait_0pt2_02_right_19_GRF.mot
version=1
nRows=71
nColumns=19
inDegrees=no
endheader
time	F1x	F1y	F1z	M1x	M1y	M1z	F2x	F2y	F2z	M2x	M2y	M2z	EC1x	EC1y	EC1z	EC2x	EC2y	EC2z
42.05	-7.0814	774.2574	42.4439	-265.6347	-52.1659	885.6224	5.7792	3.1666	0.016297	2.4068	-3.459	4.2504	-0.0592	0.0182	-0.0073	-0.0462	0.0165	0.9585
42.0721	-6.5147	776.9753	44.2096	-266.2613	-53.9029	887.9478	4.5095	3.1858	-0.058019	2.0115	-2.4972	4.0615	-0.0592	0.0182	-0.0073	-0.0462	0.0165	0.9585
42.0941	-6.1112	781.7051	46.2853	-267.4889	-55.9295	892.4595	3.1441	2.933	-0.11107	1.5788	-1.5805	3.6299	-0.0592	0.0182	-0.0073	-0.0462	0.0165	0.9585
42.1162	-5.9822	789.1271	48.5112	-269.5673	-58.0962	899.9497	1.8931	2.5562	-0.14008	1.1823	-0.81143	3.1191	-0.0592	0.0182	-0.0073	-0.0462	0.0165	0.9585
42.1383	-6.128	799.7083	50.7333	-272.6796	-60.2474	910.9275	0.87844	2.1791	-0.15055	0.86513	-0.23034	2.6477	-0.0592	0.0182	-0.0073	-0.0462	0.0165	0.9585
42.1604	-6.4146	813.2069	52.8339	-276.7664	-62.2386	925.0557	0.13347	1.8638	-0.14881	0.6378	0.16852	2.2678	-0.0592	0.0182	-0.0073	-0.0462	0.0165	0.9585
42.1824	-6.6287	828.3114	54.7321	-281.4039	-63.9429	940.768	-0.35963	1.6206	-0.14097	0.4883	0.41348	1.9796	-0.0592	0.0182	-0.0073	-0.0462	0.0165	0.9585
42.2045	-6.5366	842.7494	56.3505	-285.8426	-65.2247	955.4156	-0.64471	1.4201	-0.1288	0.39006	0.53864	1.7378	-0.0592	0.0182	-0.0073	-0.0462	0.0165	0.9585
42.2266	-5.9236	853.8318	57.5758	-289.1968	-65.9021	965.8922	-0.77422	1.2055	-0.11072	0.30832	0.57676	1.4649	-0.0592	0.0182	-0.0073	-0.0462	0.0165	0.9585
42.2486	-4.6372	859.1747	58.2603	-290.6913	-65.7626	969.4641	-0.79656	0.8987	-0.083723	0.20446	0.54912	1.0622	-0.0592	0.0182	-0.0073	-0.0462	0.0165	0.9585
42.2707	-2.616	857.3212	58.2646	-289.8659	-64.6233	964.4846	-0.75018	0.41523	-0.043871	0.040578	0.46725	0.42972	-0.0592	0.0182	-0.0073	-0.0462	0.0165	0.9585
42.2928	0.12223	848.1222	57.5166	-286.6926	-62.3972	950.8095	-0.65852	-0.32483	0.012747	-0.2178	0.33675	-0.52764	-0.0592	0.0182	-0.0073	-0.0462	0.0165	0.9585
42.3149	3.5133	832.7771	56.0611	-281.5822	-59.1428	929.8337	-0.53358	-1.3805	0.087094	-0.59503	0.16095	-1.8826	-0.0592	0.0182	-0.0073	-0.0462	0.0165	0.9585
42.3369	7.4569	813.5198	54.0676	-275.2747	-55.0729	904.1347	-0.38021	-2.7621	0.17651	-1.0968	-0.05231	-3.6417	-0.0592	0.0182	-0.0073	-0.0462	0.0165	0.9585
42.359	11.8143	793.0557	51.8045	-268.6518	-50.5295	876.8426	-0.20306	-4.3902	0.27289	-1.696	-0.28481	-5.6945	-0.0592	0.0182	-0.0073	-0.0462	0.0165	0.9585
42.3811	16.4322	773.9399	49.5847	-262.5354	-45.9111	850.9216	-0.012518	-6.044	0.35654	-2.3133	-0.49852	-7.7509	-0.0592	0.0182	-0.0073	-0.0462	0.0165	0.9585
42.4031	21.1689	758.0423	47.702	-257.5155	-41.5906	828.5679	0.16845	-7.3051	0.38977	-2.7963	-0.62801	-9.2672	-0.0592	0.0182	-0.0073	-0.0462	0.0165	0.9585
42.4252	25.8865	746.2194	46.3773	-253.8434	-37.8656	810.8549	0.29911	-7.4976	0.31319	-2.8955	-0.57756	-9.372	-0.0592	0.0182	-0.0073	-0.0462	0.0165	0.9585
42.4473	30.433	738.223	45.7291	-251.403	-34.9329	797.6377	0.31425	-5.6464	0.045509	-2.2488	-0.22026	-6.818	-0.0592	0.0182	-0.0073	-0.0462	0.0165	0.9585
42.4694	34.6247	732.749	45.7646	-249.726	-32.8834	787.6155	0.11814	-0.47569	-0.50839	-0.3808	0.6042	0.011642	-0.0592	0.0182	-0.0073	-0.0462	0.0165	0.9585
42.4914	38.236	727.6498	46.3886	-248.0646	-31.7127	778.578	-0.41562	9.5151	-1.4481	3.27	2.0815	13.0015	-0.0592	0.0182	-0.0073	-0.0462	0.0165	0.9585
42.5135	41.0103	720.3251	47.4165	-245.5246	-31.333	767.8288	-1.4352	25.8468	-2.8603	9.2794	4.3925	34.0416	-0.0592	0.0182	-0.0073	-0.0462	0.0165	0.9585
42.5356	42.6808	708.1495	48.5856	-241.2106	-31.5797	752.6449	-3.0896	49.6839	-4.7867	18.1002	7.6559	64.54	-0.0592	0.0182	-0.0073	-0.0462	0.0165	0.9585
42.5576	43.0231	688.9602	49.5762	-234.3929	-32.2148	730.7847	-5.5002	81.3552	-7.2122	29.8827	11.9006	104.8093	-0.0592	0.0182	-0.0073	-0.0462	0.0165	0.9585
42.5797	41.9224	661.5769	50.0598	-224.6853	-32.9519	701.0189	-8.7857	120.1947	-10.2471	44.3901	17.3002	153.8952	-0.0592	0.0182	-0.0073	-0.0462	0.0165	0.9585
42.6018	39.4092	626.0575	49.7912	-212.1325	-33.5368	663.377	-12.9139	164.3729	-14.0906	60.9288	24.0595	209.392	-0.0592	0.0182	-0.0073	-0.0462	0.0165	0.9585
42.6239	35.7022	583.7433	48.6574	-197.2255	-33.7829	619.1745	-17.5741	211.3526	-18.7403	78.5388	32.0184	268.0182	-0.0592	0.0182	-0.0073	-0.0462	0.0165	0.9585
42.6459	31.2386	537.0402	46.6839	-180.8234	-33.5618	570.7803	-22.3331	259.1357	-23.8452	96.4812	40.553	327.1867	-0.0592	0.0182	-0.0073	-0.0462	0.0165	0.9585
42.668	26.5845	488.7663	44.0084	-163.9222	-32.8017	520.9506	-26.7589	306.6645	-28.8634	114.3846	48.8205	385.5042	-0.0592	0.0182	-0.0073	-0.0462	0.0165	0.9585
42.6901	22.2556	441.4031	40.8345	-147.3908	-31.503	472.0999	-30.469	353.1595	-33.3179	131.9758	56.0804	441.9556	-0.0592	0.0182	-0.0073	-0.0462	0.0165	0.9585
42.7121	18.6076	396.7024	37.393	-131.8353	-29.7408	425.9292	-33.1498	397.6284	-36.9212	148.8789	61.8476	495.3053	-0.0592	0.0182	-0.0073	-0.0462	0.0165	0.9585
42.7342	15.8442	355.7107	33.9125	-117.6103	-27.6384	383.4465	-34.617	438.819	-39.5687	164.5964	65.9124	544.0533	-0.0592	0.0182	-0.0073	-0.0462	0.0165	0.9585
42.7563	14.0791	319.0018	30.5848	-104.903	-25.3189	345.2004	-34.8661	475.4958	-41.2717	178.6278	68.2795	586.7805	-0.0592	0.0182	-0.0073	-0.0462	0.0165	0.9585
42.7784	13.3725	286.84	27.5496	-93.7928	-22.881	311.453	-34.04	506.8373	-42.0935	190.6328	69.0813	622.6126	-0.0592	0.0182	-0.0073	-0.0462	0.0165	0.9585
42.8004	13.7305	259.2066	24.8846	-84.2632	-20.3904	282.2019	-32.3538	532.6073	-42.1075	200.5067	68.5025	651.4011	-0.0592	0.0182	-0.0073	-0.0462	0.0165	0.9585
42.8225	15.08	235.7374	22.5847	-76.1845	-17.8631	257.1126	-30.0504	553.1086	-41.3932	208.3619	66.7508	673.6483	-0.0592	0.0182	-0.0073	-0.0462	0.0165	0.9585
42.8446	17.2527	215.7065	20.5518	-69.3122	-15.2583	235.4876	-27.3719	569.075	-40.0693	214.4797	64.0875	690.3603	-0.0592	0.0182	-0.0073	-0.0462	0.0165	0.9585
42.8666	19.9763	198.1343	18.6524	-63.323	-12.536	216.3657	-24.5333	581.5095	-38.3267	219.2418	60.8526	702.836	-0.0592	0.0182	-0.0073	-0.0462	0.0165	0.9585
42.8887	22.885	181.9005	16.765	-57.8492	-9.7006	198.6248	-21.7025	591.5516	-36.3995	223.0799	57.4169	712.5063	-0.0592	0.0182	-0.0073	-0.0462	0.0165	0.9585
42.9108	25.5736	165.8486	14.7855	-52.5117	-6.7893	181.077	-18.9947	600.4098	-34.5143	226.4483	54.1146	720.8576	-0.0592	0.0182	-0.0073	-0.0462	0.0165	0.9585
42.9329	27.6586	148.9542	12.6378	-46.9767	-3.8658	162.6475	-16.5012	609.2937	-32.8783	229.7991	51.2385	729.3647	-0.0592	0.0182	-0.0073	-0.0462	0.0165	0.9585
42.9549	28.8049	130.5989	10.295	-41.0438	-1.0307	142.6763	-14.3204	619.2772	-31.6641	233.5356	49.0331	739.3415	-0.0592	0.0182	-0.0073	-0.0462	0.0165	0.9585
42.977	28.7446	110.8259	7.7997	-34.7221	1.5662	121.2012	-12.5702	631.13	-30.9719	237.9565	47.6559	751.7517	-0.0592	0.0182	-0.0073	-0.0462	0.0165	0.9585
42.9991	27.3411	90.3727	5.2863	-28.2385	3.7283	99.0058	-11.3742	645.1919	-30.8071	243.207	47.1545	767.0547	-0.0592	0.0182	-0.0073	-0.0462	0.0165	0.9585
43.0211	24.6724	70.4171	2.9682	-21.9543	5.2532	77.3395	-10.8497	661.3243	-31.1032	249.2528	47.4878	785.137	-0.0592	0.0182	-0.0073	-0.0462	0.0165	0.9585
43.0432	21.0224	52.1329	1.0771	-16.2267	5.994	57.4532	-11.0909	679.0003	-31.7614	255.907	48.5647	805.4193	-0.0592	0.0182	-0.0073	-0.0462	0.0165	0.9585
43.0653	16.7903	36.3615	-0.22962	-11.3081	5.9225	40.2593	-12.1324	697.5421	-32.6949	262.9152	50.2779	827.1319	-0.0592	0.0182	-0.0073	-0.0462	0.0165	0.9585
43.0874	12.413	23.5334	-0.93836	-7.323	5.1738	26.239	-13.9421	716.439	-33.8572	270.0745	52.5355	849.6786	-0.0592	0.0182	-0.0073	-0.0462	0.0165	0.9585
43.1094	8.3036	13.7312	-1.1537	-4.2881	3.9997	15.4995	-16.4457	735.575	-35.2368	277.3236	55.2626	872.8915	-0.0592	0.0182	-0.0073	-0.0462	0.0165	0.9585
43.1315	4.7948	6.7713	-1.0355	-2.1392	2.6823	7.8564	-19.5164	755.2312	-36.8321	284.7498	58.3732	897.0221	-0.0592	0.0182	-0.0073	-0.0462	0.0165	0.9585
43.1536	2.0786	2.2813	-0.74275	-0.75479	1.4505	2.9101	-22.9478	775.8274	-38.6231	292.4956	61.7339	922.4309	-0.0592	0.0182	-0.0073	-0.0462	0.0165	0.9585
43.1756	0.16812	-0.23991	-0.40054	0.022936	0.43814	0.1183	-26.4267	797.4791	-40.5574	300.5961	65.1402	949.0691	-0.0592	0.0182	-0.0073	-0.0462	0.0165	0.9585
43.1977	-1.0462	-1.3438	-0.082948	0.36572	-0.31308	-1.1205	-29.5545	819.5673	-42.5539	308.8135	68.3285	975.9872	-0.0592	0.0182	-0.0073	-0.0462	0.0165	0.9585
43.2198	-1.7226	-1.5466	0.17364	0.43313	-0.81565	-1.3715	-31.9196	840.5179	-44.5194	316.552	71.0216	1001.1261	-0.0592	0.0182	-0.0073	-0.0462	0.0165	0.9585
43.2419	-2.0205	-1.282	0.35757	0.35907	-1.1093	-1.1124	-33.2019	857.9762	-46.356	322.9246	72.9791	1021.5709	-0.0592	0.0182	-0.0073	-0.0462	0.0165	0.9585
43.2639	-2.0796	-0.89214	0.4714	0.24941	-1.2431	-0.72628	-33.2339	869.4439	-47.946	326.9978	74.0051	1034.3089	-0.0592	0.0182	-0.0073	-0.0462	0.0165	0.9585
43.286	-2.0123	-0.63076	0.52362	0.18509	-1.2649	-0.5054	-31.9889	873.118	-49.1432	328.1089	73.9397	1037.2003	-0.0592	0.0182	-0.0073	-0.0462	0.0165	0.9585
43.3081	-1.8963	-0.67242	0.52405	0.22305	-1.2138	-0.65738	-29.5309	868.4664	-49.8052	326.0803	72.6787	1029.6308	-0.0592	0.0182	-0.0073	-0.0462	0.0165	0.9585
43.3301	-1.7732	-1.1275	0.48149	0.3975	-1.1151	-1.3131	-25.9768	856.3215	-49.842	321.249	70.2181	1012.602	-0.0592	0.0182	-0.0073	-0.0462	0.0165	0.9585
43.3522	-1.6551	-2.0399	0.40183	0.72142	-0.97759	-2.5217	-21.4722	838.5486	-49.2512	314.337	66.6768	988.3406	-0.0592	0.0182	-0.0073	-0.0462	0.0165	0.9585
43.3743	-1.534	-3.3639	0.28684	1.1811	-0.79768	-4.2298	-16.1831	817.5105	-48.1207	306.2453	62.2778	959.6711	-0.0592	0.0182	-0.0073	-0.0462	0.0165	0.9585
43.3964	-1.3852	-4.9364	0.14138	1.7222	-0.56952	-6.2386	-10.3015	795.5278	-46.6173	297.85	57.3296	929.3924	-0.0592	0.0182	-0.0073	-0.0462	0.0165	0.9585
43.4184	-1.1691	-6.4324	-0.021665	2.2324	-0.29549	-8.1453	-4.0434	774.443	-44.9577	289.8385	52.1907	899.7702	-0.0592	0.0182	-0.0073	-0.0462	0.0165	0.9585
43.4405	-0.83593	-7.3063	-0.17446	2.5216	0.0029055	-9.2666	2.3516	755.3883	-43.3626	282.6244	47.2162	872.2769	-0.0592	0.0182	-0.0073	-0.0462	0.0165	0.9585
43.4626	-0.33374	-6.7418	-0.26773	2.3064	0.28161	-8.577	8.6129	738.7731	-42.0082	276.3492	42.7048	847.5816	-0.0592	0.0182	-0.0073	-0.0462	0.0165	0.9585
43.4846	0.37868	-3.6249	-0.22632	1.1997	0.46174	-4.6765	14.4358	724.4287	-41.0012	270.9388	38.879	825.7165	-0.0592	0.0182	-0.0073	-0.0462	0.0165	0.9585
43.5067	1.3132	3.4319	0.051393	-1.2791	0.41946	4.1747	19.4921	711.7587	-40.3789	266.1602	35.8887	806.2342	-0.0592	0.0182	-0.0073	-0.0462	0.0165	0.9585
43.5288	2.4267	15.9649	0.69244	-5.6596	-0.021103	19.903	23.4885	699.847	-40.1152	261.6608	33.8012	788.2924	-0.0592	0.0182	-0.0073	-0.0462	0.0165	0.9585
43.5509	3.5859	35.3844	1.8392	-12.4259	-1.0904	44.2903	26.2087	687.5352	-40.1227	256.999	32.5845	770.7308	-0.0592	0.0182	-0.0073	-0.0462	0.0165	0.9585
43.5729	4.523	62.4995	3.6232	-21.8529	-3.0528	78.3789	27.5094	673.4878	-40.2597	251.6698	32.1172	752.1512	-0.0592	0.0182	-0.0073	-0.0462	0.0165	0.9585
43.595	4.7948	96.8151	6.1261	-33.7593	-6.1685	121.5836	27.3327	656.371	-40.342	245.1744	32.2038	731.0964	-0.0592	0.0182	-0.0073	-0.0462	0.0165	0.9585
